<?xml version="1.0" encoding="UTF-8"?>
<!DOCTYPE svg PUBLIC "-//W3C//DTD SVG 1.1//EN" "http://www.w3.org/Graphics/SVG/1.1/DTD/svg11.dtd">
<!-- Creator: CorelDRAW 2018 -->
<svg xmlns="http://www.w3.org/2000/svg" xml:space="preserve" width="2480px" height="2480px" version="1.1" style="shape-rendering:geometricPrecision; text-rendering:geometricPrecision; image-rendering:optimizeQuality; fill-rule:evenodd; clip-rule:evenodd"
viewBox="0 0 2480 2479.68"
 xmlns:xlink="http://www.w3.org/1999/xlink">
 <defs>
  <style type="text/css">
   <![CDATA[
    .str0 {stroke:#003399;stroke-width:2.36;stroke-miterlimit:22.9256}
    .fil4 {fill:none}
    .fil1 {fill:#46B9B3}
    .fil0 {fill:#003399}
    .fil3 {fill:url(#id0);fill-rule:nonzero}
    .fil2 {fill:url(#id1);fill-rule:nonzero}
   ]]>
  </style>
  <linearGradient id="id0" gradientUnits="objectBoundingBox" x1="1.38025e-05%" y1="49.9996%" x2="100%" y2="49.9996%">
   <stop offset="0" style="stop-opacity:1; stop-color:#003399"/>
   <stop offset="1" style="stop-opacity:1; stop-color:#46B9B3"/>
  </linearGradient>
  <radialGradient id="id1" gradientUnits="userSpaceOnUse" gradientTransform="matrix(-0.0319791 -2.41981 2.41981 -0.0319792 -4089 5333)" cx="1254.89" cy="2225.08" r="516.3" fx="1254.89" fy="2225.08">
   <stop offset="0" style="stop-opacity:1; stop-color:#46B9B3"/>
   <stop offset="1" style="stop-opacity:1; stop-color:#003399"/>
  </radialGradient>
 </defs>
 <g id="Layer_x0020_1">
  <metadata id="CorelCorpID_0Corel-Layer"/>
  <path class="fil0 str0" d="M807.3 323.8c-247.3,168.85 -373.37,481.16 -291.48,786.8 103.69,386.94 501.4,616.55 888.32,512.87 316.17,-84.71 527.27,-365.71 537.37,-676.73 -43.76,255.25 -231.15,474.53 -497.72,545.96 -365.19,97.85 -740.53,-118.86 -838.37,-484.03 -68.73,-256.51 17.73,-518.03 201.88,-684.87l0 0z"/>
  <path class="fil1" d="M1617.92 1324.47c208.66,-142.49 315.05,-406.01 245.95,-663.92 -87.5,-326.52 -423.09,-520.28 -749.6,-432.78 -266.78,71.48 -444.91,308.59 -453.43,571.04 36.92,-215.39 195.04,-400.42 419.99,-460.69 308.15,-82.57 624.87,100.28 707.44,408.43 57.99,216.46 -14.98,437.14 -170.35,577.92l0 0z"/>
  <path class="fil0 str0" d="M1522.5 1331.26l0 0 -103.08 -236.72c-11.44,-28 -42,-41.99 -71.29,-35.66l-206.16 47.11 0 -221.4c0,-34.41 -27.96,-62.41 -62.33,-62.41 -34.36,0 -62.37,28 -62.37,62.41l1.26 299.03c0,19.16 7.63,38.19 22.93,49.64 13.95,12.73 34.38,16.56 52.14,12.73l231.65 -53.48 82.73 188.38c8.88,22.92 31.78,36.93 56,36.93 8.89,0 16.52,-1.3 25.4,-3.82 31.86,-14.01 45.86,-50.92 33.12,-82.74l0 0z"/>
  <path class="fil0 str0" d="M1195.41 689.83l0 0c0,-54.69 -44.55,-97.97 -97.99,-97.97 -54.71,0 -97.97,43.28 -97.97,97.97 0,53.44 43.26,96.76 97.97,96.76 53.44,0 97.99,-43.32 97.99,-96.76l0 0z"/>
  <path class="fil0 str0" d="M1252.72 1272.73c17.82,-3.82 36.88,-6.37 55.96,-11.47 2.55,7.65 7.67,15.26 10.22,24.19 -48.36,73.82 -133.62,128.55 -230.37,128.55 -151.45,0 -273.64,-124.73 -273.64,-276.18 0,-104.34 64.9,-193.42 150.19,-239.29l0 72.57c-50.93,38.19 -87.85,99.26 -87.85,168.01 0.03,115.81 94.17,211.25 210.04,211.25 67.41,0 127.22,-29.3 165.45,-77.63l0 0z"/>
  <path class="fil2" d="M910.55 2048.78l122.05 0 -71.2 -104.62c40.69,-20.82 63.94,-57.63 63.94,-106.55 0,-78.46 -60.06,-127.86 -154.51,-127.86l-163.22 0 0 339.03 114.3 0 0 -85.24 31 0 57.64 85.24zm-0.49 -211.17c0,24.7 -15.01,39.72 -46.49,39.72l-41.66 0 0 -79.44 41.66 0c31.48,0 46.49,15.02 46.49,39.72z"/>
  <polygon id="1" class="fil2" points="1150.29,1962.57 1150.29,1918.01 1293.66,1918.01 1293.66,1835.67 1150.29,1835.67 1150.29,1795.96 1313.52,1795.96 1313.52,1709.75 1037.93,1709.75 1037.93,2048.78 1319.81,2048.78 1319.81,1962.57 "/>
  <polygon id="2" class="fil2" points="1740.22,2048.78 1739.25,1709.75 1645.29,1709.75 1537.76,1890.4 1427.33,1709.75 1333.37,1709.75 1333.37,2048.78 1437.51,2048.78 1437.51,1899.61 1511.13,2018.27 1561.5,2018.27 1635.11,1894.28 1636.08,2048.78 "/>
  <path class="fil3" d="M505.48 2181.2c2.34,-5.32 4.08,-10.55 5.23,-15.7 1.16,-5.15 1.75,-10.2 1.75,-15.18 0,-1.29 0,-2.26 -0.03,-2.89 -0.02,-0.63 -0.07,-1.22 -0.12,-1.75l-4.47 4.2c-3.89,3.6 -7.97,7.22 -12.25,10.84 -4.27,3.64 -8.69,7.26 -13.31,10.85 2.94,2.7 6.32,4.86 10.16,6.44 3.81,1.61 8.16,2.65 13.04,3.19zm-25.89 -12.54c4.59,-3.43 8.98,-6.88 13.19,-10.4 4.2,-3.5 8.21,-7.04 12,-10.59l7.12 -6.68c-1.05,-7.56 -3.53,-13.44 -7.41,-17.69 -3.89,-4.25 -8.7,-6.36 -14.46,-6.36 -6.19,0 -11.37,2.31 -15.5,6.9 -4.13,4.59 -6.19,10.42 -6.19,17.42 0,4.66 0.95,9.28 2.82,13.84 1.87,4.57 4.68,9.09 8.43,13.56zm23.56 15.45c-4.42,-0.56 -8.58,-1.7 -12.44,-3.42 -3.86,-1.71 -7.58,-4.06 -11.12,-7.05 -6.61,4.76 -12.17,8.16 -16.74,10.2 -4.54,2.04 -8.75,3.06 -12.59,3.06 -4.66,0 -8.38,-1.26 -11.22,-3.81 -2.82,-2.53 -4.23,-5.88 -4.23,-10.01 0,-3.28 0.95,-6 2.82,-8.16 1.87,-2.16 4.18,-3.23 6.92,-3.23 1.9,0 3.45,0.58 4.64,1.77 1.19,1.19 1.78,2.72 1.78,4.62 0,1.62 -0.51,2.89 -1.48,3.83 -1,0.95 -2.36,1.44 -4.06,1.44 -0.8,0 -1.82,-0.15 -3.04,-0.46 -1.19,-0.32 -1.97,-0.47 -2.31,-0.47 -0.55,0 -0.97,0.15 -1.23,0.47 -0.27,0.31 -0.39,0.8 -0.39,1.45 0,2.58 1.09,4.67 3.28,6.32 2.18,1.63 5.07,2.45 8.67,2.45 3.55,0 7.53,-1.04 11.95,-3.1 4.42,-2.07 9.28,-5.16 14.58,-9.29 -4.23,-5.02 -7.36,-10.17 -9.43,-15.42 -2.06,-5.25 -3.11,-10.72 -3.11,-16.4 0,-8.7 2.19,-15.82 6.59,-21.35 4.39,-5.57 9.96,-8.34 16.69,-8.34 6.65,0 12.41,2.6 17.29,7.8 4.91,5.2 8.21,12.32 9.99,21.33l24.05 -21.98c14.89,-13.61 26.45,-22.96 34.66,-28.06 8.19,-5.1 15.46,-7.66 21.77,-7.66 0.8,0 1.48,0.17 2.07,0.49 0.56,0.34 0.85,0.73 0.85,1.14 0,0.25 -2.67,3.26 -8.04,9.01 -5.37,5.76 -10.43,11.91 -15.16,18.39 -1.39,1.85 -3.5,4.72 -6.34,8.6 -19.63,26.97 -37.15,47.84 -52.53,62.63 4.86,-0.24 9.31,-1.07 13.39,-2.52 4.08,-1.46 8.06,-3.62 11.95,-6.51 1.85,-1.34 3.84,-2.92 5.98,-4.77 2.14,-1.87 3.4,-2.79 3.79,-2.79 0.36,0 0.65,0.12 0.85,0.32 0.19,0.22 0.29,0.53 0.34,0.97 0,0.56 -0.56,1.41 -1.7,2.5 -1.14,1.09 -3.4,2.99 -6.76,5.68 -4.56,3.63 -9.35,6.27 -14.4,7.97 -5.06,1.73 -10.84,2.6 -17.35,2.65l-1.63 1.8c-0.43,0.46 -0.97,0.83 -1.6,1.07 -0.63,0.24 -1.41,0.36 -2.31,0.36l-3.28 0c-0.51,0 -0.89,-0.07 -1.16,-0.22 -0.27,-0.14 -0.39,-0.31 -0.39,-0.51 0,-0.04 0.02,-0.17 0.1,-0.38 0.07,-0.22 0.17,-0.47 0.31,-0.76l0.73 -1.65zm12.44 -41.27c0.1,1.99 0.17,3.42 0.17,4.34 0.02,0.9 0.05,1.75 0.05,2.55 0,4.23 -0.32,8.36 -0.97,12.44 -0.64,4.08 -1.63,8.09 -2.94,12.03 10.3,-11.61 21.03,-24.54 32.26,-38.77 11.22,-14.24 17.76,-22.4 19.6,-24.49 3.99,-4.4 8.14,-8.72 12.47,-12.95 4.32,-4.2 8.81,-8.33 13.53,-12.37 -4.76,0.27 -11.37,3.33 -19.87,9.11 -8.48,5.79 -18.3,13.97 -29.4,24.56l-24.9 23.55z"/>
  <path id="1" class="fil3" d="M625.47 2130.32c0,-1.33 0.46,-2.43 1.38,-3.25 0.93,-0.83 2.17,-1.24 3.7,-1.24 1.55,0 2.81,0.41 3.74,1.24 0.92,0.82 1.38,1.92 1.38,3.25 0,1.41 -0.48,2.56 -1.43,3.41 -0.95,0.85 -2.19,1.28 -3.69,1.28 -1.58,0 -2.82,-0.43 -3.72,-1.28 -0.9,-0.85 -1.36,-2 -1.36,-3.41zm-28.74 30.01c-2.65,1.53 -5.32,3.32 -7.99,5.39 -2.68,2.06 -4.23,3.08 -4.64,3.08 -0.3,0 -0.54,-0.09 -0.73,-0.29 -0.17,-0.17 -0.27,-0.41 -0.27,-0.7 0,-0.75 0.88,-1.8 2.6,-3.13l0.07 -0.08 4.4 -3.35c5.37,-4.13 9.77,-7.19 13.19,-9.21 3.4,-2.01 5.93,-3.03 7.56,-3.03 2.13,0 3.86,0.14 5.15,0.43 1.31,0.27 1.96,0.66 1.96,1.12 0,0.34 -1.94,2.14 -5.8,5.39 -3.89,3.26 -7.48,6.51 -10.81,9.79 -4.23,4.13 -7.39,7.56 -9.5,10.26 -2.11,2.72 -3.18,4.64 -3.18,5.78 0,0.61 0.19,1.09 0.56,1.41 0.38,0.34 0.92,0.51 1.57,0.51 2,0 4.96,-1 8.87,-2.99 3.94,-1.99 8.12,-4.71 12.59,-8.14 1.75,-1.26 3.69,-2.79 5.8,-4.59 2.09,-1.77 3.33,-2.67 3.65,-2.67 0.29,0 0.53,0.12 0.75,0.36 0.22,0.24 0.31,0.51 0.31,0.78 0,0.92 -2.23,3.16 -6.75,6.78l-1.55 1.28c-4.84,3.94 -9.55,7.05 -14.12,9.31 -4.59,2.26 -8.31,3.38 -11.2,3.38 -2.09,0 -3.79,-0.56 -5.1,-1.7 -1.29,-1.15 -1.94,-2.63 -1.94,-4.43 0,-2.43 1.21,-5.34 3.62,-8.77 2.4,-3.42 6.05,-7.41 10.93,-11.97z"/>
  <path id="2" class="fil3" d="M622.84 2186.61c-0.41,0.15 -0.97,0.25 -1.62,0.32 -0.66,0.07 -1.78,0.12 -3.36,0.12 -1.6,0 -2.69,-0.07 -3.23,-0.22 -0.55,-0.14 -0.82,-0.39 -0.82,-0.78 0,-0.85 2.09,-3.2 6.27,-7.04 2.79,-2.62 5.07,-4.81 6.82,-6.56l1.73 -1.56c9.59,-9.3 14.38,-14.64 14.38,-16.01 -0.05,-0.43 -0.15,-0.72 -0.29,-0.92 -0.15,-0.19 -0.29,-0.29 -0.49,-0.29 -1.34,0 -3.04,0.63 -5.1,1.92 -2.07,1.29 -4.98,3.55 -8.72,6.83 -0.95,0.8 -2.09,1.82 -3.43,3.06 -1.75,1.65 -2.91,2.5 -3.47,2.5 -0.34,0 -0.63,-0.12 -0.9,-0.37 -0.27,-0.24 -0.39,-0.53 -0.39,-0.85 0,-0.68 1.68,-2.5 5.05,-5.49 0.71,-0.63 1.27,-1.11 1.63,-1.5 4.01,-3.5 7.48,-6.12 10.47,-7.87 2.99,-1.73 5.54,-2.6 7.63,-2.6 1.51,0 2.67,0.51 3.48,1.5 0.82,1 1.21,2.51 1.21,4.5 0,0.34 -0.02,0.73 -0.07,1.21 -0.05,0.46 -0.1,1.17 -0.2,2.07 4.69,-3.28 8.48,-5.64 11.4,-7.02 2.89,-1.41 5.36,-2.12 7.41,-2.12 1.5,0 2.72,0.46 3.59,1.36 0.88,0.9 1.31,2.14 1.31,3.7 0,1.72 -0.58,3.47 -1.75,5.24 -1.16,1.78 -3.64,4.47 -7.45,8.09 -1,0.95 -2.43,2.26 -4.28,3.99 -5.78,5.39 -8.67,8.67 -8.67,9.81 0,0.51 0.22,0.95 0.63,1.29 0.44,0.32 0.99,0.49 1.72,0.49 2.09,0 5.13,-1 9.16,-3.02 4.01,-2.01 8.29,-4.76 12.85,-8.23 1.95,-1.41 4.01,-3.09 6.2,-4.98 2.18,-1.9 3.47,-2.85 3.91,-2.85 0.34,0 0.58,0.13 0.78,0.32 0.19,0.22 0.31,0.54 0.36,0.97 0,0.85 -2.65,3.43 -7.92,7.68l-0.34 0.29c-5.22,4.13 -10.25,7.44 -15.06,9.91 -4.83,2.46 -8.5,3.7 -11.08,3.7 -2.14,0 -3.86,-0.59 -5.2,-1.78 -1.33,-1.19 -1.99,-2.74 -1.99,-4.64 0,-2.28 0.88,-4.76 2.6,-7.48 1.73,-2.7 4.23,-5.44 7.51,-8.24 1.04,-0.92 2.45,-2.11 4.27,-3.64 4.4,-3.69 6.61,-5.88 6.61,-6.54 0,-0.34 -0.17,-0.63 -0.51,-0.85 -0.32,-0.24 -0.73,-0.36 -1.19,-0.36 -2.72,0 -7.99,3.06 -15.84,9.21 -7.87,6.14 -16.4,14.06 -25.61,23.73z"/>
  <path id="3" class="fil3" d="M713.8 2152.5c-0.17,-0.04 -0.39,-0.09 -0.63,-0.12 -0.24,-0.02 -0.58,-0.02 -1.07,-0.02 -1.48,0 -3.04,0.34 -4.74,0.99 -1.67,0.66 -3.37,1.63 -5.07,2.92 -4.06,3.13 -7.41,6.8 -10.09,10.98 -2.69,4.18 -4.03,7.6 -4.03,10.33 0,1.7 0.58,3.15 1.75,4.34 1.17,1.19 2.58,1.78 4.23,1.78 3.33,0 7.14,-1.07 11.46,-3.21 4.33,-2.14 8.94,-5.25 13.88,-9.33 1.28,-1.09 2.81,-2.48 4.56,-4.15 1.97,-1.8 3.16,-2.7 3.65,-2.7 0.34,0 0.6,0.12 0.82,0.37 0.22,0.21 0.32,0.53 0.32,0.92 0,0.61 -0.68,1.63 -2.02,3.03 -1.36,1.39 -3.37,3.16 -6.02,5.3 -5.49,4.57 -10.6,7.95 -15.31,10.13 -4.69,2.19 -9.13,3.28 -13.36,3.28 -3.33,0 -6,-1.12 -8.04,-3.35 -2.04,-2.24 -3.06,-5.15 -3.06,-8.75 0,-3.28 0.99,-6.48 2.99,-9.59 1.99,-3.11 5.03,-6.22 9.11,-9.36 2.96,-2.23 6.02,-3.93 9.16,-5.1 3.13,-1.16 6.19,-1.75 9.18,-1.75 2.21,0 3.98,0.56 5.32,1.68 1.34,1.12 1.99,2.6 1.99,4.47 0,2.04 -0.68,3.79 -2.06,5.22 -1.37,1.46 -2.99,2.19 -4.89,2.19 -1.24,0 -2.21,-0.37 -2.91,-1.12 -0.71,-0.73 -1.07,-1.72 -1.07,-2.96 0,-1.14 0.51,-2.26 1.55,-3.38 1.05,-1.12 2.53,-2.14 4.4,-3.04z"/>
  <path id="4" class="fil3" d="M740.18 2157.29c-3.08,2.28 -6.34,4.86 -9.76,7.75 -3.4,2.91 -5.35,4.35 -5.83,4.35 -0.3,0 -0.49,-0.1 -0.64,-0.32 -0.14,-0.22 -0.21,-0.53 -0.21,-0.97 0,-0.75 1.77,-2.62 5.34,-5.61 3.55,-2.99 9.43,-7.53 17.64,-13.61l42.73 -47.95c0.61,-0.71 1.17,-1.19 1.68,-1.41 0.48,-0.24 1.09,-0.36 1.82,-0.36 1.36,0 2.5,0.17 3.38,0.53 0.87,0.36 1.31,0.83 1.31,1.38 0,0.39 -0.08,0.73 -0.25,1.05 -0.17,0.29 -0.53,0.73 -1.11,1.31l-49.42 57.7c-3.54,4.18 -6.29,7.92 -8.18,11.22 -1.9,3.28 -2.85,5.91 -2.85,7.85 0,1.19 0.22,2.04 0.64,2.57 0.43,0.51 1.11,0.78 2.06,0.78 2.19,0 4.81,-0.7 7.87,-2.14 3.06,-1.4 6.78,-3.66 11.15,-6.75 2.8,-1.99 5.64,-4.2 8.55,-6.66 2.89,-2.45 4.5,-3.67 4.84,-3.67 0.39,0 0.65,0.13 0.85,0.32 0.19,0.22 0.31,0.54 0.36,0.97 0,0.85 -2.69,3.45 -8.04,7.75l-0.36 0.29c-5.27,4.23 -10.28,7.54 -15.06,9.94 -4.77,2.41 -8.68,3.6 -11.71,3.6 -2.19,0 -3.89,-0.59 -5.13,-1.78 -1.24,-1.19 -1.85,-2.84 -1.85,-4.9 0,-2.77 0.83,-6.03 2.51,-9.8 1.65,-3.79 4.2,-8.26 7.67,-13.43z"/>
  <path id="5" class="fil3" d="M781.12 2160.33c-2.65,1.53 -5.32,3.3 -8,5.39 -2.67,2.06 -4.22,3.08 -4.64,3.08 -0.29,0 -0.53,-0.09 -0.72,-0.29 -0.17,-0.17 -0.27,-0.41 -0.27,-0.7 0,-0.75 0.87,-1.8 2.6,-3.13l0.07 -0.08 4.4 -3.35c5.37,-4.13 9.74,-7.19 13.16,-9.21 3.43,-2.04 5.96,-3.03 7.56,-3.03 2.14,0 3.86,0.14 5.18,0.41 1.31,0.29 1.94,0.68 1.94,1.14 0,0.15 -0.1,0.39 -0.34,0.68 -0.24,0.32 -0.58,0.63 -1,0.97l-12.48 10.89c-4.4,3.86 -8.09,7.62 -11.03,11.29 -2.94,3.7 -4.43,6.15 -4.43,7.39 0,0.61 0.2,1.09 0.56,1.41 0.39,0.34 0.93,0.51 1.58,0.51 2.04,0 4.91,-0.93 8.58,-2.77 3.69,-1.87 7.04,-4.18 10.08,-7l25.51 -23c0.29,-0.25 0.61,-0.54 0.92,-0.93 0.78,-0.75 1.46,-1.14 2.09,-1.14 2.26,0 4.18,0.17 5.69,0.53 1.53,0.37 2.28,0.76 2.28,1.17 0,0.2 -0.12,0.44 -0.37,0.73 -0.21,0.27 -0.51,0.56 -0.85,0.85l-12.46 10.96c-4.42,3.86 -8.09,7.62 -11.05,11.29 -2.94,3.7 -4.42,6.15 -4.42,7.39 0,0.61 0.19,1.09 0.58,1.41 0.39,0.34 0.92,0.51 1.63,0.51 1.48,0 3.98,-0.83 7.53,-2.5 3.52,-1.66 7.29,-3.84 11.29,-6.54 2.85,-1.97 5.69,-4.15 8.53,-6.63 2.87,-2.48 4.47,-3.72 4.86,-3.72 0.36,0 0.66,0.12 0.85,0.34 0.19,0.2 0.32,0.54 0.36,0.95 0,0.85 -2.25,3.11 -6.77,6.78l-1.56 1.28c-5.27,4.23 -10.35,7.54 -15.18,9.94 -4.84,2.41 -8.79,3.6 -11.83,3.6 -2.55,0 -4.52,-0.54 -5.88,-1.61 -1.34,-1.07 -2.02,-2.62 -2.02,-4.66 0,-0.63 0,-1.07 0.03,-1.36 0.02,-0.29 0.07,-0.56 0.12,-0.78 -5.22,3.04 -9.38,5.2 -12.46,6.49 -3.07,1.28 -5.66,1.92 -7.73,1.92 -2.09,0 -3.79,-0.56 -5.1,-1.7 -1.29,-1.15 -1.94,-2.63 -1.94,-4.43 0,-2.43 1.21,-5.34 3.62,-8.77 2.4,-3.42 6.04,-7.41 10.93,-11.97z"/>
  <path id="6" class="fil3" d="M831.84 2181.73c0.29,0.95 0.93,1.65 1.9,2.14 0.97,0.46 2.33,0.7 4.08,0.7 4.71,0 8.36,-2.52 10.98,-7.58 2.6,-5.05 4.13,-12.61 4.54,-22.69 -4.49,2.53 -8.69,5.44 -12.61,8.72 -3.88,3.31 -6.05,4.96 -6.46,4.96 -0.34,0 -0.61,-0.1 -0.82,-0.29 -0.22,-0.17 -0.32,-0.42 -0.32,-0.71 0,-0.99 1.94,-3.03 5.83,-6.12 3.89,-3.08 8.94,-6.56 15.18,-10.4 0.32,-2.74 1.1,-4.98 2.34,-6.65 1.24,-1.68 2.64,-2.53 4.2,-2.53 0.78,0 1.38,0.24 1.82,0.75 0.46,0.49 0.68,1.17 0.68,2.02 0,1.39 -0.51,2.77 -1.55,4.13 -1.05,1.38 -2.48,2.53 -4.28,3.43 1,1.5 1.73,3.25 2.19,5.19 0.48,1.95 0.73,4.11 0.73,6.49 0,3.89 -0.64,7.31 -1.85,10.25 -1.24,2.94 -3.06,5.32 -5.42,7.12 6.08,-2.43 11.69,-5.76 16.86,-9.98 5.18,-4.21 7.82,-6.32 7.92,-6.32 0.32,0 0.58,0.1 0.8,0.34 0.22,0.24 0.32,0.56 0.32,0.92 0,0.73 -1.02,2.04 -3.09,3.99 -2.06,1.94 -4.73,4 -7.99,6.19 -5.22,3.72 -10.4,6.56 -15.55,8.55 -5.15,2 -9.76,2.99 -13.82,2.99 -3.04,0 -5.51,-0.68 -7.41,-2.06 -1.89,-1.39 -2.84,-3.16 -2.84,-5.35 0,-1.75 0.53,-3.18 1.63,-4.3 1.09,-1.12 2.42,-1.67 4.03,-1.67 1.16,0 2.14,0.36 2.86,1.06 0.73,0.73 1.1,1.63 1.1,2.73 0,1.26 -0.44,2.26 -1.29,2.98 -0.85,0.71 -1.99,1.07 -3.4,1.07 -0.39,0 -0.68,-0.02 -0.85,-0.05 -0.2,-0.02 -0.34,-0.02 -0.44,-0.02z"/>
  <path id="7" class="fil3" d="M890.85 2175.92l16.4 -17.42c0.61,-0.68 1.09,-1.33 1.46,-1.99 0.36,-0.68 0.53,-1.28 0.53,-1.87 0,-0.46 -0.17,-0.85 -0.51,-1.12 -0.32,-0.29 -0.78,-0.43 -1.34,-0.43 -1.62,0 -3.74,0.68 -6.38,2.01 -2.63,1.36 -5.32,3.21 -8.09,5.54 -4.5,3.74 -8.24,7.65 -11.18,11.74 -2.94,4.08 -4.42,7.07 -4.42,8.96 0,0.68 0.19,1.22 0.61,1.6 0.41,0.42 0.92,0.61 1.53,0.61 1.28,0 2.96,-0.68 5.03,-2.01 2.06,-1.36 4.17,-3.24 6.36,-5.62zm0.58 3.02c-2.86,2.79 -5.49,4.9 -7.92,6.29 -2.43,1.41 -4.59,2.11 -6.48,2.11 -1.99,0 -3.55,-0.73 -4.64,-2.21 -1.1,-1.48 -1.63,-3.57 -1.63,-6.27 0,-3.18 0.75,-6.22 2.28,-9.13 1.51,-2.89 3.87,-5.71 7.05,-8.48 4.08,-3.64 8.48,-6.56 13.19,-8.72 4.69,-2.16 8.87,-3.23 12.46,-3.23 2.04,0 3.55,0.39 4.5,1.14 0.95,0.75 1.5,2.02 1.63,3.79 0.68,-0.78 1.45,-1.51 2.33,-2.26 0.87,-0.73 1.84,-1.43 2.94,-2.09 0.39,0 0.94,-0.02 1.65,-0.07 0.7,-0.05 1.24,-0.08 1.55,-0.08 1.68,0 2.87,0.13 3.57,0.39 0.71,0.25 1.07,0.71 1.07,1.32 0,0.58 -1.09,1.82 -3.28,3.79 -1.19,1.04 -2.13,1.87 -2.84,2.47 -6.36,6.03 -11.34,11.18 -14.96,15.43 -3.62,4.25 -5.42,7.12 -5.42,8.65 0,0.61 0.12,1.04 0.39,1.26 0.26,0.24 0.75,0.37 1.46,0.37 2.08,0 5.17,-1 9.27,-3.02 4.09,-2.01 8.41,-4.76 12.95,-8.23 1.9,-1.41 3.94,-3.09 6.13,-4.98 2.18,-1.9 3.49,-2.85 3.91,-2.85 0.34,0 0.6,0.13 0.82,0.37 0.22,0.22 0.32,0.53 0.32,0.92 0,0.85 -2.65,3.43 -7.97,7.75l-0.36 0.29c-5.28,4.23 -10.33,7.54 -15.14,9.94 -4.81,2.41 -8.74,3.6 -11.78,3.6 -2.19,0 -3.94,-0.61 -5.25,-1.83 -1.29,-1.21 -1.94,-2.84 -1.94,-4.88 0,-0.41 0,-0.75 0.02,-0.95 0.03,-0.22 0.08,-0.43 0.12,-0.6zm19.27 -52.96c1.94,0 4.93,0.87 8.94,2.62 4.01,1.75 6.9,2.62 8.65,2.62 2.14,0 4.08,-1.16 5.8,-3.5 1.73,-2.33 2.82,-3.49 3.23,-3.49 0.44,0 0.81,0.12 1.07,0.36 0.29,0.22 0.44,0.51 0.44,0.85 0,0.9 -0.51,2.38 -1.55,4.45 -1.05,2.06 -2.38,4.05 -4.01,6 -0.8,0.99 -1.8,1.75 -3.01,2.28 -1.22,0.51 -2.48,0.78 -3.82,0.78 -2.04,0 -5.08,-0.88 -9.11,-2.62 -4.03,-1.75 -6.95,-2.63 -8.7,-2.63 -2.13,0 -4.08,1.17 -5.8,3.5 -1.73,2.33 -2.82,3.5 -3.23,3.5 -0.39,0 -0.71,-0.1 -0.93,-0.32 -0.24,-0.22 -0.36,-0.51 -0.36,-0.9 0,-0.85 0.53,-2.3 1.58,-4.39 1.04,-2.09 2.33,-4.11 3.91,-6.05 0.8,-1 1.77,-1.75 2.94,-2.29 1.16,-0.51 2.48,-0.77 3.96,-0.77z"/>
  <path id="8" class="fil3" d="M930.81 2181.05c0,0.85 0.22,1.46 0.64,1.82 0.43,0.37 1.09,0.54 1.99,0.54 2.09,0 4.83,-0.98 8.26,-2.92 3.4,-1.94 7.36,-4.81 11.88,-8.62 3.88,-3.31 6.92,-6.42 9.08,-9.28 2.19,-2.87 3.28,-5.18 3.28,-6.88 0,-0.9 -0.26,-1.6 -0.82,-2.14 -0.54,-0.51 -1.29,-0.77 -2.24,-0.77 -1.6,0 -3.81,0.77 -6.61,2.3 -2.79,1.56 -5.73,3.65 -8.82,6.32 -5.07,4.3 -9.11,8.26 -12.12,11.83 -3.01,3.6 -4.52,6.2 -4.52,7.8zm31.37 -12.63c-6.12,6.02 -11.71,10.59 -16.79,13.75 -5.08,3.16 -9.4,4.73 -12.95,4.73 -2.48,0 -4.42,-0.7 -5.88,-2.13 -1.43,-1.44 -2.16,-3.33 -2.16,-5.71 0,-3.31 1.34,-6.85 4.01,-10.57 2.7,-3.72 6.49,-7.39 11.44,-10.93 3.69,-2.68 7.48,-4.76 11.35,-6.27 3.86,-1.53 7.26,-2.28 10.2,-2.28 2.38,0 4.28,0.63 5.73,1.89 1.44,1.26 2.17,2.92 2.17,4.96 0,1.38 -0.42,2.91 -1.24,4.64 -0.85,1.7 -2.09,3.57 -3.75,5.56 0.52,1.09 1.24,1.89 2.14,2.43 0.9,0.51 1.99,0.78 3.26,0.78 1.82,0 3.91,-0.83 6.27,-2.46 2.38,-1.65 3.86,-2.48 4.42,-2.48 0.29,0 0.51,0.1 0.63,0.3 0.14,0.19 0.22,0.48 0.22,0.85 0,0.94 -1.34,2.3 -4.06,4.08 -2.7,1.75 -5.2,2.62 -7.48,2.62 -1.51,0 -2.87,-0.29 -4.08,-0.9 -1.22,-0.58 -2.36,-1.55 -3.45,-2.86z"/>
  <path id="9" class="fil3" d="M1018.59 2173.93c-0.44,0.9 -0.76,1.78 -0.98,2.65 -0.21,0.85 -0.31,1.6 -0.31,2.26 0,1.53 0.48,2.72 1.46,3.57 0.97,0.85 2.33,1.29 4.03,1.29 2.99,0 6.66,-1.1 10.98,-3.31 4.32,-2.21 8.94,-5.32 13.9,-9.35 1.26,-1.09 2.81,-2.48 4.66,-4.15 1.85,-1.7 2.99,-2.53 3.4,-2.53 0.39,0 0.68,0.1 0.85,0.32 0.2,0.21 0.32,0.53 0.37,0.94 0,0.54 -0.64,1.44 -1.92,2.75 -1.29,1.31 -3.5,3.3 -6.68,6.02 -4.74,4.04 -9.48,7.17 -14.22,9.43 -4.76,2.26 -8.89,3.38 -12.46,3.38 -3.4,0 -6.12,-1.05 -8.16,-3.14 -2.04,-2.09 -3.06,-4.93 -3.06,-8.55 0,-3.23 1.02,-6.44 3.06,-9.64 2.04,-3.21 5,-6.27 8.89,-9.16 3.43,-2.48 6.63,-4.33 9.62,-5.57 2.99,-1.24 5.76,-1.84 8.31,-1.84 2.28,0 3.89,0.36 4.83,1.09 0.95,0.75 1.44,2.02 1.44,3.81 0,3.67 -2.7,7.46 -8.07,11.4 -5.37,3.93 -12.02,6.73 -19.94,8.33zm2.06 -4.23c6.41,-1.33 11.81,-3.47 16.18,-6.41 4.37,-2.96 6.56,-5.71 6.56,-8.28 0,-0.9 -0.17,-1.56 -0.51,-1.95 -0.32,-0.36 -0.9,-0.56 -1.7,-0.56 -2.38,0 -5.3,1.46 -8.77,4.4 -3.47,2.92 -7.39,7.19 -11.76,12.8zm17.03 -25.94c-0.48,0 -0.8,-0.07 -1,-0.24 -0.19,-0.17 -0.29,-0.42 -0.29,-0.76 0,-0.34 1.61,-1.67 4.84,-4.03 3.23,-2.33 5.85,-5.08 7.84,-8.21 0.66,-1.1 1.44,-2.8 2.29,-5.13 1.65,-4.27 3.59,-6.41 5.83,-6.41 1.38,0 2.45,0.39 3.25,1.16 0.78,0.81 1.17,1.85 1.17,3.19 0,2.28 -1.02,4.61 -3.06,7.04 -2.04,2.43 -5.15,4.98 -9.33,7.7 -2.82,1.85 -5.2,3.26 -7.17,4.23 -1.96,0.97 -3.42,1.46 -4.37,1.46z"/>
  <path id="10" class="fil3" d="M1091.05 2186.61c-0.41,0.15 -0.97,0.25 -1.62,0.32 -0.68,0.07 -1.8,0.12 -3.36,0.12 -1.6,0 -2.69,-0.07 -3.23,-0.22 -0.56,-0.14 -0.82,-0.39 -0.82,-0.78 0,-0.85 2.09,-3.2 6.26,-7.04 2.8,-2.62 5.08,-4.81 6.83,-6.56l1.7 -1.56c9.6,-9.3 14.38,-14.64 14.38,-16.01 -0.05,-0.43 -0.14,-0.72 -0.26,-0.92 -0.15,-0.19 -0.32,-0.29 -0.51,-0.29 -1.34,0 -3.04,0.63 -5.08,1.92 -2.07,1.29 -4.98,3.55 -8.72,6.83 -0.95,0.8 -2.09,1.82 -3.43,3.06 -1.75,1.65 -2.91,2.5 -3.47,2.5 -0.34,0 -0.63,-0.12 -0.9,-0.37 -0.27,-0.24 -0.39,-0.53 -0.39,-0.85 0,-0.68 1.72,-2.55 5.2,-5.63 0.65,-0.58 1.14,-1.02 1.48,-1.36 4.28,-3.69 7.82,-6.37 10.69,-8.02 2.84,-1.63 5.3,-2.45 7.38,-2.45 1.54,0 2.7,0.51 3.5,1.5 0.81,1 1.22,2.51 1.22,4.5 0,0.34 -0.03,0.73 -0.07,1.21 -0.05,0.46 -0.13,1.17 -0.22,2.07 6.43,-4.04 10.86,-6.61 13.19,-7.68 2.35,-1.07 4.32,-1.6 5.88,-1.6 1.28,0 2.28,0.51 2.99,1.53 0.7,1.02 1.06,2.52 1.06,4.47 0,0.39 -0.02,0.78 -0.02,1.21 -0.02,0.42 -0.1,1.12 -0.19,2.07 5.8,-3.67 10,-6.12 12.65,-7.39 2.63,-1.26 4.71,-1.89 6.22,-1.89 1.68,0 2.99,0.46 3.96,1.38 0.97,0.93 1.46,2.21 1.46,3.82 0,2.89 -2.99,7.26 -8.99,13.11l-0.22 0.22c-1.04,0.95 -2.45,2.26 -4.27,3.99 -5.79,5.39 -8.68,8.67 -8.68,9.81 0,0.51 0.22,0.95 0.63,1.29 0.44,0.32 1,0.49 1.73,0.49 2.09,0 5.15,-1 9.21,-3.02 4.08,-2.01 8.38,-4.76 12.95,-8.23 1.94,-1.41 4,-3.09 6.19,-4.98 2.16,-1.9 3.45,-2.85 3.84,-2.85 0.31,0 0.58,0.13 0.78,0.32 0.19,0.22 0.29,0.54 0.29,0.97 0,0.85 -2.65,3.43 -7.92,7.68l-0.41 0.36c-5.18,4.09 -10.18,7.37 -15.04,9.84 -4.84,2.46 -8.53,3.7 -11.11,3.7 -2.08,0 -3.78,-0.59 -5.12,-1.78 -1.34,-1.19 -1.99,-2.74 -1.99,-4.64 0,-2.28 0.87,-4.76 2.6,-7.48 1.72,-2.7 4.2,-5.44 7.43,-8.24 1.04,-0.92 2.45,-2.11 4.28,-3.64 4.44,-3.69 6.68,-5.88 6.68,-6.54 0,-0.34 -0.17,-0.63 -0.54,-0.85 -0.36,-0.24 -0.78,-0.36 -1.24,-0.36 -2.67,0 -7.8,2.99 -15.4,8.96 -7.63,5.98 -16.37,13.97 -26.24,23.98 -0.46,0.15 -1.04,0.25 -1.7,0.32 -0.65,0.07 -1.75,0.12 -3.28,0.12 -1.65,0 -2.77,-0.07 -3.35,-0.22 -0.56,-0.14 -0.85,-0.39 -0.85,-0.78 0,-0.85 2.07,-3.2 6.2,-7.04 1.62,-1.53 2.89,-2.75 3.83,-3.64 6.81,-6.4 11.69,-11.18 14.7,-14.34 3.01,-3.16 4.52,-5.05 4.52,-5.73 0,-0.42 -0.15,-0.8 -0.49,-1.14 -0.34,-0.32 -0.68,-0.49 -1.06,-0.49 -2.6,0 -7.83,3.04 -15.67,9.13 -7.83,6.1 -16.5,14.05 -26.05,23.81z"/>
  <path id="11" class="fil3" d="M1190.42 2175.92l16.39 -17.42c0.61,-0.68 1.1,-1.33 1.46,-1.99 0.37,-0.68 0.54,-1.28 0.54,-1.87 0,-0.46 -0.17,-0.85 -0.52,-1.12 -0.31,-0.29 -0.77,-0.43 -1.33,-0.43 -1.63,0 -3.74,0.68 -6.39,2.01 -2.62,1.36 -5.32,3.21 -8.09,5.54 -4.5,3.74 -8.24,7.65 -11.18,11.74 -2.94,4.08 -4.42,7.07 -4.42,8.96 0,0.68 0.2,1.22 0.61,1.6 0.41,0.42 0.92,0.61 1.53,0.61 1.29,0 2.96,-0.68 5.03,-2.01 2.06,-1.36 4.18,-3.24 6.37,-5.62zm0.58 3.02c-2.87,2.79 -5.49,4.9 -7.92,6.29 -2.43,1.41 -4.59,2.11 -6.49,2.11 -1.99,0 -3.55,-0.73 -4.64,-2.21 -1.09,-1.48 -1.63,-3.57 -1.63,-6.27 0,-3.18 0.76,-6.22 2.29,-9.13 1.5,-2.89 3.86,-5.71 7.04,-8.48 4.08,-3.64 8.48,-6.56 13.19,-8.72 4.69,-2.16 8.87,-3.23 12.47,-3.23 2.04,0 3.54,0.39 4.49,1.14 0.95,0.75 1.51,2.02 1.63,3.79 0.68,-0.78 1.46,-1.51 2.33,-2.26 0.88,-0.73 1.85,-1.43 2.94,-2.09 0.39,0 0.95,-0.02 1.65,-0.07 0.71,-0.05 1.24,-0.08 1.56,-0.08 1.67,0 2.86,0.13 3.57,0.39 0.7,0.25 1.07,0.71 1.07,1.32 0,0.58 -1.1,1.82 -3.28,3.79 -1.19,1.04 -2.14,1.87 -2.84,2.47 -6.37,6.03 -11.35,11.18 -14.97,15.43 -3.62,4.25 -5.42,7.12 -5.42,8.65 0,0.61 0.12,1.04 0.39,1.26 0.27,0.24 0.76,0.37 1.46,0.37 2.09,0 5.17,-1 9.28,-3.02 4.08,-2.01 8.4,-4.76 12.95,-8.23 1.89,-1.41 3.93,-3.09 6.12,-4.98 2.19,-1.9 3.5,-2.85 3.91,-2.85 0.34,0 0.61,0.13 0.83,0.37 0.22,0.22 0.31,0.53 0.31,0.92 0,0.85 -2.65,3.43 -7.97,7.75l-0.36 0.29c-5.27,4.23 -10.32,7.54 -15.13,9.94 -4.81,2.41 -8.75,3.6 -11.79,3.6 -2.18,0 -3.93,-0.61 -5.25,-1.83 -1.28,-1.21 -1.94,-2.84 -1.94,-4.88 0,-0.41 0,-0.75 0.03,-0.95 0.02,-0.22 0.07,-0.43 0.12,-0.6z"/>
  <path id="12" class="fil3" d="M1271.19 2130.32c0,-1.33 0.46,-2.43 1.39,-3.25 0.92,-0.83 2.16,-1.24 3.69,-1.24 1.55,0 2.82,0.41 3.74,1.24 0.92,0.82 1.38,1.92 1.38,3.25 0,1.41 -0.48,2.56 -1.43,3.41 -0.95,0.85 -2.19,1.28 -3.69,1.28 -1.58,0 -2.82,-0.43 -3.72,-1.28 -0.9,-0.85 -1.36,-2 -1.36,-3.41zm-28.74 30.01c-2.65,1.53 -5.32,3.32 -7.99,5.39 -2.67,2.06 -4.23,3.08 -4.64,3.08 -0.29,0 -0.54,-0.09 -0.73,-0.29 -0.17,-0.17 -0.27,-0.41 -0.27,-0.7 0,-0.75 0.88,-1.8 2.6,-3.13l0.07 -0.08 4.4 -3.35c5.37,-4.13 9.77,-7.19 13.19,-9.21 3.41,-2.01 5.93,-3.03 7.56,-3.03 2.14,0 3.86,0.14 5.15,0.43 1.31,0.27 1.97,0.66 1.97,1.12 0,0.34 -1.95,2.14 -5.81,5.39 -3.89,3.26 -7.48,6.51 -10.81,9.79 -4.23,4.13 -7.38,7.56 -9.5,10.26 -2.11,2.72 -3.18,4.64 -3.18,5.78 0,0.61 0.19,1.09 0.56,1.41 0.39,0.34 0.92,0.51 1.58,0.51 1.99,0 4.95,-1 8.86,-2.99 3.94,-1.99 8.12,-4.71 12.59,-8.14 1.75,-1.26 3.69,-2.79 5.8,-4.59 2.09,-1.77 3.33,-2.67 3.65,-2.67 0.29,0 0.53,0.12 0.75,0.36 0.22,0.24 0.32,0.51 0.32,0.78 0,0.92 -2.24,3.16 -6.76,6.78l-1.55 1.28c-4.84,3.94 -9.55,7.05 -14.12,9.31 -4.59,2.26 -8.3,3.38 -11.2,3.38 -2.08,0 -3.79,-0.56 -5.1,-1.7 -1.28,-1.15 -1.94,-2.63 -1.94,-4.43 0,-2.43 1.21,-5.34 3.62,-8.77 2.4,-3.42 6.05,-7.41 10.93,-11.97z"/>
  <path id="13" class="fil3" d="M1264.63 2181.73c0.29,0.95 0.92,1.65 1.9,2.14 0.97,0.46 2.33,0.7 4.08,0.7 4.71,0 8.36,-2.52 10.98,-7.58 2.6,-5.05 4.13,-12.61 4.54,-22.69 -4.49,2.53 -8.69,5.44 -12.61,8.72 -3.88,3.31 -6.05,4.96 -6.46,4.96 -0.34,0 -0.61,-0.1 -0.83,-0.29 -0.21,-0.17 -0.31,-0.42 -0.31,-0.71 0,-0.99 1.94,-3.03 5.83,-6.12 3.89,-3.08 8.94,-6.56 15.18,-10.4 0.32,-2.74 1.1,-4.98 2.34,-6.65 1.23,-1.68 2.64,-2.53 4.2,-2.53 0.78,0 1.38,0.24 1.82,0.75 0.46,0.49 0.68,1.17 0.68,2.02 0,1.39 -0.51,2.77 -1.55,4.13 -1.05,1.38 -2.48,2.53 -4.28,3.43 1,1.5 1.73,3.25 2.19,5.19 0.48,1.95 0.73,4.11 0.73,6.49 0,3.89 -0.64,7.31 -1.85,10.25 -1.24,2.94 -3.06,5.32 -5.42,7.12 6.08,-2.43 11.69,-5.76 16.86,-9.98 5.18,-4.21 7.82,-6.32 7.92,-6.32 0.32,0 0.58,0.1 0.8,0.34 0.22,0.24 0.32,0.56 0.32,0.92 0,0.73 -1.02,2.04 -3.09,3.99 -2.06,1.94 -4.73,4 -7.99,6.19 -5.22,3.72 -10.4,6.56 -15.55,8.55 -5.15,2 -9.76,2.99 -13.82,2.99 -3.04,0 -5.52,-0.68 -7.41,-2.06 -1.89,-1.39 -2.84,-3.16 -2.84,-5.35 0,-1.75 0.53,-3.18 1.63,-4.3 1.09,-1.12 2.42,-1.67 4.03,-1.67 1.16,0 2.14,0.36 2.86,1.06 0.73,0.73 1.1,1.63 1.1,2.73 0,1.26 -0.44,2.26 -1.29,2.98 -0.85,0.71 -1.99,1.07 -3.4,1.07 -0.39,0 -0.68,-0.02 -0.85,-0.05 -0.2,-0.02 -0.34,-0.02 -0.44,-0.02z"/>
  <path id="14" class="fil3" d="M1360.71 2185.64l-26.26 30.32c-0.95,1.09 -1.68,2.21 -2.23,3.3 -0.54,1.12 -0.81,2.16 -0.81,3.11 0,0.61 0.1,1.1 0.32,1.46 0.22,0.37 0.51,0.54 0.9,0.54 1.36,0 3.18,-0.83 5.44,-2.51 2.26,-1.65 4.74,-4.03 7.51,-7.12 4.59,-5.12 8.18,-10.17 10.81,-15.15 2.6,-4.98 4.05,-9.65 4.32,-13.95zm-2.06 -9.21l16.4 -17.85c0.6,-0.68 1.09,-1.36 1.45,-2.04 0.37,-0.68 0.54,-1.31 0.54,-1.9 0,-0.46 -0.17,-0.85 -0.51,-1.12 -0.32,-0.29 -0.78,-0.43 -1.34,-0.43 -1.72,0 -3.84,0.65 -6.34,1.99 -2.53,1.34 -5.22,3.18 -8.14,5.56 -4.54,3.79 -8.28,7.75 -11.22,11.88 -2.92,4.13 -4.37,7.22 -4.37,9.26 0,0.68 0.19,1.24 0.6,1.67 0.42,0.47 0.93,0.68 1.53,0.68 1.29,0 2.97,-0.68 5.03,-2.06 2.07,-1.38 4.18,-3.26 6.37,-5.64zm4.98 9.21c-0.12,4.35 -1.27,8.82 -3.38,13.39 -2.11,4.56 -5.2,9.28 -9.28,14.11 -4.32,5.08 -7.99,8.77 -11.05,11.1 -3.04,2.31 -5.69,3.48 -7.97,3.48 -1.41,0 -2.6,-0.59 -3.52,-1.75 -0.93,-1.17 -1.39,-2.63 -1.39,-4.38 0,-3.98 2.16,-8.98 6.49,-15.03 4.3,-6.03 11.29,-13.8 20.91,-23.28 -2.09,1.39 -3.93,2.41 -5.51,3.07 -1.6,0.65 -2.96,0.99 -4.11,0.99 -1.99,0 -3.54,-0.73 -4.64,-2.21 -1.09,-1.46 -1.62,-3.57 -1.62,-6.27 0,-3.18 0.75,-6.22 2.28,-9.11 1.51,-2.91 3.86,-5.73 7.04,-8.48 4.04,-3.62 8.43,-6.51 13.15,-8.69 4.73,-2.19 8.82,-3.28 12.22,-3.28 2.18,0 3.74,0.36 4.69,1.07 0.92,0.73 1.5,1.99 1.72,3.86 0.68,-0.78 1.46,-1.51 2.33,-2.26 0.88,-0.73 1.85,-1.43 2.94,-2.09 0.39,0 0.95,-0.02 1.65,-0.07 0.71,-0.05 1.24,-0.08 1.56,-0.08 1.68,0 2.87,0.13 3.57,0.39 0.7,0.27 1.07,0.71 1.07,1.32 0,0.58 -1.12,1.82 -3.35,3.79 -1.14,1.04 -2.07,1.87 -2.77,2.47 -6.37,6.05 -11.35,11.18 -14.97,15.43 -3.62,4.25 -5.42,7.14 -5.42,8.65 0,0.63 0.15,1.04 0.47,1.29 0.31,0.24 0.82,0.36 1.53,0.36 2.09,0 5.15,-1.02 9.16,-3.04 4,-2.01 8.33,-4.76 12.92,-8.21 1.89,-1.43 3.94,-3.08 6.12,-5 2.19,-1.9 3.5,-2.85 3.94,-2.85 0.31,0 0.58,0.13 0.8,0.37 0.22,0.24 0.31,0.53 0.31,0.92 0,0.85 -2.21,3.11 -6.68,6.76l-1.57 1.28c-5.08,4.09 -9.87,7.29 -14.39,9.62 -4.51,2.34 -8.09,3.5 -10.76,3.5 -0.95,0 -1.8,-0.09 -2.53,-0.29 -0.72,-0.19 -1.38,-0.48 -1.96,-0.85z"/>
  <path id="15" class="fil3" d="M1410.68 2160.33c-2.64,1.53 -5.32,3.3 -7.99,5.39 -2.67,2.06 -4.23,3.08 -4.64,3.08 -0.29,0 -0.53,-0.09 -0.73,-0.29 -0.17,-0.17 -0.26,-0.41 -0.26,-0.7 0,-0.75 0.87,-1.8 2.6,-3.13l0.07 -0.08 4.4 -3.35c5.36,-4.13 9.74,-7.19 13.16,-9.21 3.43,-2.04 5.95,-3.03 7.56,-3.03 2.13,0 3.86,0.14 5.17,0.41 1.31,0.29 1.94,0.68 1.94,1.14 0,0.15 -0.09,0.39 -0.34,0.68 -0.24,0.32 -0.58,0.63 -0.99,0.97l-12.49 10.89c-4.39,3.86 -8.09,7.62 -11.03,11.29 -2.94,3.7 -4.42,6.15 -4.42,7.39 0,0.61 0.2,1.09 0.56,1.41 0.39,0.34 0.92,0.51 1.58,0.51 2.04,0 4.91,-0.93 8.58,-2.77 3.69,-1.87 7.04,-4.18 10.08,-7l25.51 -23c0.29,-0.25 0.6,-0.54 0.92,-0.93 0.78,-0.75 1.46,-1.14 2.09,-1.14 2.26,0 4.18,0.17 5.68,0.53 1.53,0.37 2.29,0.76 2.29,1.17 0,0.2 -0.13,0.44 -0.37,0.73 -0.22,0.27 -0.51,0.56 -0.85,0.85l-12.46 10.96c-4.42,3.86 -8.09,7.62 -11.06,11.29 -2.93,3.7 -4.42,6.15 -4.42,7.39 0,0.61 0.2,1.09 0.59,1.41 0.38,0.34 0.92,0.51 1.62,0.51 1.49,0 3.99,-0.83 7.54,-2.5 3.52,-1.66 7.28,-3.84 11.29,-6.54 2.84,-1.97 5.69,-4.15 8.53,-6.63 2.87,-2.48 4.47,-3.72 4.86,-3.72 0.36,0 0.65,0.12 0.85,0.34 0.19,0.2 0.31,0.54 0.36,0.95 0,0.85 -2.26,3.11 -6.78,6.78l-1.55 1.28c-5.27,4.23 -10.35,7.54 -15.18,9.94 -4.84,2.41 -8.8,3.6 -11.84,3.6 -2.55,0 -4.51,-0.54 -5.87,-1.61 -1.34,-1.07 -2.02,-2.62 -2.02,-4.66 0,-0.63 0,-1.07 0.02,-1.36 0.03,-0.29 0.08,-0.56 0.13,-0.78 -5.23,3.04 -9.38,5.2 -12.47,6.49 -3.06,1.28 -5.66,1.92 -7.72,1.92 -2.09,0 -3.79,-0.56 -5.1,-1.7 -1.29,-1.15 -1.95,-2.63 -1.95,-4.43 0,-2.43 1.22,-5.34 3.62,-8.77 2.41,-3.42 6.05,-7.41 10.93,-11.97z"/>
  <path id="16" class="fil3" d="M1468.67 2173.93c-0.43,0.9 -0.75,1.78 -0.97,2.65 -0.22,0.85 -0.31,1.6 -0.31,2.26 0,1.53 0.48,2.72 1.45,3.57 0.97,0.85 2.33,1.29 4.04,1.29 2.98,0 6.65,-1.1 10.98,-3.31 4.32,-2.21 8.94,-5.32 13.89,-9.35 1.27,-1.09 2.82,-2.48 4.67,-4.15 1.84,-1.7 2.98,-2.53 3.4,-2.53 0.39,0 0.68,0.1 0.85,0.32 0.19,0.21 0.31,0.53 0.36,0.94 0,0.54 -0.63,1.44 -1.92,2.75 -1.28,1.31 -3.49,3.3 -6.68,6.02 -4.73,4.04 -9.47,7.17 -14.21,9.43 -4.76,2.26 -8.89,3.38 -12.46,3.38 -3.4,0 -6.12,-1.05 -8.16,-3.14 -2.05,-2.09 -3.07,-4.93 -3.07,-8.55 0,-3.23 1.02,-6.44 3.07,-9.64 2.04,-3.21 5,-6.27 8.89,-9.16 3.42,-2.48 6.63,-4.33 9.62,-5.57 2.98,-1.24 5.76,-1.84 8.31,-1.84 2.28,0 3.88,0.36 4.83,1.09 0.95,0.75 1.43,2.02 1.43,3.81 0,3.67 -2.69,7.46 -8.06,11.4 -5.37,3.93 -12.03,6.73 -19.95,8.33zm2.07 -4.23c6.41,-1.33 11.8,-3.47 16.18,-6.41 4.37,-2.96 6.56,-5.71 6.56,-8.28 0,-0.9 -0.17,-1.56 -0.51,-1.95 -0.32,-0.36 -0.9,-0.56 -1.7,-0.56 -2.38,0 -5.3,1.46 -8.77,4.4 -3.48,2.92 -7.39,7.19 -11.76,12.8z"/>
  <path id="17" class="fil3" d="M1551.17 2160.33c-2.64,1.53 -5.32,3.3 -7.99,5.39 -2.67,2.06 -4.23,3.08 -4.64,3.08 -0.29,0 -0.53,-0.09 -0.73,-0.29 -0.17,-0.17 -0.26,-0.41 -0.26,-0.7 0,-0.75 0.87,-1.8 2.59,-3.13l0.08 -0.08 4.39 -3.35c5.37,-4.13 9.75,-7.19 13.17,-9.21 3.43,-2.04 5.95,-3.03 7.56,-3.03 2.13,0 3.86,0.14 5.17,0.41 1.31,0.29 1.94,0.68 1.94,1.14 0,0.15 -0.09,0.39 -0.34,0.68 -0.24,0.32 -0.58,0.63 -0.99,0.97l-12.49 10.89c-4.4,3.86 -8.09,7.62 -11.03,11.29 -2.94,3.7 -4.42,6.15 -4.42,7.39 0,0.61 0.2,1.09 0.56,1.41 0.39,0.34 0.92,0.51 1.58,0.51 2.04,0 4.91,-0.93 8.57,-2.77 3.7,-1.87 7.05,-4.18 10.09,-7l25.51 -23c0.29,-0.25 0.6,-0.54 0.92,-0.93 0.78,-0.75 1.46,-1.14 2.09,-1.14 2.26,0 4.18,0.17 5.68,0.53 1.53,0.37 2.29,0.76 2.29,1.17 0,0.2 -0.13,0.44 -0.37,0.73 -0.22,0.27 -0.51,0.56 -0.85,0.85l-12.46 10.96c-4.42,3.86 -8.09,7.62 -11.06,11.29 -2.94,3.7 -4.42,6.15 -4.42,7.39 0,0.61 0.2,1.09 0.59,1.41 0.38,0.34 0.92,0.51 1.62,0.51 1.49,0 3.99,-0.83 7.54,-2.5 3.52,-1.66 7.28,-3.84 11.29,-6.54 2.84,-1.97 5.69,-4.15 8.53,-6.63 2.87,-2.48 4.47,-3.72 4.86,-3.72 0.36,0 0.65,0.12 0.85,0.34 0.19,0.2 0.31,0.54 0.36,0.95 0,0.85 -2.26,3.11 -6.78,6.78l-1.55 1.28c-5.27,4.23 -10.35,7.54 -15.18,9.94 -4.84,2.41 -8.8,3.6 -11.84,3.6 -2.55,0 -4.51,-0.54 -5.87,-1.61 -1.34,-1.07 -2.02,-2.62 -2.02,-4.66 0,-0.63 0,-1.07 0.02,-1.36 0.03,-0.29 0.08,-0.56 0.12,-0.78 -5.22,3.04 -9.37,5.2 -12.46,6.49 -3.06,1.28 -5.66,1.92 -7.72,1.92 -2.09,0 -3.79,-0.56 -5.1,-1.7 -1.29,-1.15 -1.95,-2.63 -1.95,-4.43 0,-2.43 1.22,-5.34 3.62,-8.77 2.41,-3.42 6.05,-7.41 10.93,-11.97z"/>
  <path id="18" class="fil3" d="M1605.83 2186.61c-0.41,0.15 -0.97,0.25 -1.62,0.32 -0.68,0.07 -1.8,0.12 -3.36,0.12 -1.6,0 -2.69,-0.07 -3.23,-0.22 -0.56,-0.14 -0.82,-0.39 -0.82,-0.78 0,-0.85 2.09,-3.2 6.26,-7.04 2.8,-2.62 5.08,-4.81 6.83,-6.56l1.7 -1.56c9.6,-9.3 14.38,-14.64 14.38,-16.01 -0.05,-0.43 -0.14,-0.72 -0.26,-0.92 -0.15,-0.19 -0.32,-0.29 -0.51,-0.29 -1.34,0 -3.04,0.63 -5.08,1.92 -2.07,1.29 -4.98,3.55 -8.72,6.83 -0.95,0.8 -2.09,1.82 -3.43,3.06 -1.75,1.65 -2.91,2.5 -3.47,2.5 -0.34,0 -0.63,-0.12 -0.9,-0.37 -0.27,-0.24 -0.39,-0.53 -0.39,-0.85 0,-0.68 1.73,-2.55 5.2,-5.63 0.66,-0.58 1.14,-1.02 1.48,-1.36 4.28,-3.69 7.82,-6.37 10.69,-8.02 2.84,-1.63 5.3,-2.45 7.39,-2.45 1.53,0 2.69,0.51 3.49,1.5 0.81,1 1.22,2.51 1.22,4.5 0,0.34 -0.03,0.73 -0.07,1.21 -0.05,0.46 -0.13,1.17 -0.22,2.07 6.44,-4.04 10.86,-6.61 13.19,-7.68 2.36,-1.07 4.32,-1.6 5.88,-1.6 1.29,0 2.28,0.51 2.99,1.53 0.7,1.02 1.06,2.52 1.06,4.47 0,0.39 -0.02,0.78 -0.02,1.21 -0.02,0.42 -0.1,1.12 -0.19,2.07 5.8,-3.67 10,-6.12 12.65,-7.39 2.63,-1.26 4.72,-1.89 6.22,-1.89 1.68,0 2.99,0.46 3.96,1.38 0.97,0.93 1.46,2.21 1.46,3.82 0,2.89 -2.99,7.26 -8.99,13.11l-0.22 0.22c-1.04,0.95 -2.45,2.26 -4.27,3.99 -5.79,5.39 -8.68,8.67 -8.68,9.81 0,0.51 0.22,0.95 0.64,1.29 0.43,0.32 0.99,0.49 1.72,0.49 2.09,0 5.15,-1 9.21,-3.02 4.08,-2.01 8.38,-4.76 12.95,-8.23 1.94,-1.41 4,-3.09 6.19,-4.98 2.16,-1.9 3.45,-2.85 3.84,-2.85 0.32,0 0.58,0.13 0.78,0.32 0.19,0.22 0.29,0.54 0.29,0.97 0,0.85 -2.65,3.43 -7.92,7.68l-0.41 0.36c-5.18,4.09 -10.18,7.37 -15.04,9.84 -4.84,2.46 -8.53,3.7 -11.1,3.7 -2.09,0 -3.79,-0.59 -5.13,-1.78 -1.34,-1.19 -1.99,-2.74 -1.99,-4.64 0,-2.28 0.87,-4.76 2.6,-7.48 1.72,-2.7 4.2,-5.44 7.43,-8.24 1.05,-0.92 2.45,-2.11 4.28,-3.64 4.44,-3.69 6.68,-5.88 6.68,-6.54 0,-0.34 -0.17,-0.63 -0.54,-0.85 -0.36,-0.24 -0.77,-0.36 -1.24,-0.36 -2.67,0 -7.79,2.99 -15.4,8.96 -7.63,5.98 -16.37,13.97 -26.23,23.98 -0.47,0.15 -1.05,0.25 -1.71,0.32 -0.65,0.07 -1.75,0.12 -3.28,0.12 -1.65,0 -2.77,-0.07 -3.35,-0.22 -0.56,-0.14 -0.85,-0.39 -0.85,-0.78 0,-0.85 2.07,-3.2 6.2,-7.04 1.62,-1.53 2.89,-2.75 3.84,-3.64 6.8,-6.4 11.68,-11.18 14.69,-14.34 3.02,-3.16 4.52,-5.05 4.52,-5.73 0,-0.42 -0.14,-0.8 -0.48,-1.14 -0.34,-0.32 -0.68,-0.49 -1.07,-0.49 -2.6,0 -7.83,3.04 -15.67,9.13 -7.83,6.1 -16.5,14.05 -26.05,23.81z"/>
  <path id="19" class="fil3" d="M1723.46 2181.73c0.29,0.95 0.93,1.65 1.9,2.14 0.97,0.46 2.33,0.7 4.08,0.7 4.71,0 8.36,-2.52 10.98,-7.58 2.6,-5.05 4.13,-12.61 4.54,-22.69 -4.49,2.53 -8.69,5.44 -12.6,8.72 -3.89,3.31 -6.05,4.96 -6.47,4.96 -0.34,0 -0.6,-0.1 -0.82,-0.29 -0.22,-0.17 -0.32,-0.42 -0.32,-0.71 0,-0.99 1.95,-3.03 5.83,-6.12 3.89,-3.08 8.94,-6.56 15.19,-10.4 0.31,-2.74 1.09,-4.98 2.33,-6.65 1.24,-1.68 2.65,-2.53 4.2,-2.53 0.78,0 1.38,0.24 1.82,0.75 0.46,0.49 0.68,1.17 0.68,2.02 0,1.39 -0.51,2.77 -1.55,4.13 -1.05,1.38 -2.48,2.53 -4.28,3.43 1,1.5 1.73,3.25 2.19,5.19 0.48,1.95 0.73,4.11 0.73,6.49 0,3.89 -0.63,7.31 -1.85,10.25 -1.24,2.94 -3.06,5.32 -5.42,7.12 6.08,-2.43 11.69,-5.76 16.86,-9.98 5.18,-4.21 7.83,-6.32 7.92,-6.32 0.32,0 0.59,0.1 0.8,0.34 0.22,0.24 0.32,0.56 0.32,0.92 0,0.73 -1.02,2.04 -3.09,3.99 -2.06,1.94 -4.73,4 -7.99,6.19 -5.22,3.72 -10.4,6.56 -15.55,8.55 -5.15,2 -9.76,2.99 -13.82,2.99 -3.03,0 -5.51,-0.68 -7.41,-2.06 -1.89,-1.39 -2.84,-3.16 -2.84,-5.35 0,-1.75 0.53,-3.18 1.63,-4.3 1.09,-1.12 2.43,-1.67 4.03,-1.67 1.17,0 2.14,0.36 2.87,1.06 0.72,0.73 1.09,1.63 1.09,2.73 0,1.26 -0.44,2.26 -1.29,2.98 -0.85,0.71 -1.99,1.07 -3.4,1.07 -0.39,0 -0.68,-0.02 -0.85,-0.05 -0.19,-0.02 -0.34,-0.02 -0.44,-0.02z"/>
  <path id="20" class="fil3" d="M1767.48 2181.05c0,0.85 0.22,1.46 0.63,1.82 0.44,0.37 1.1,0.54 2,0.54 2.09,0 4.83,-0.98 8.26,-2.92 3.4,-1.94 7.36,-4.81 11.88,-8.62 3.88,-3.31 6.92,-6.42 9.08,-9.28 2.19,-2.87 3.28,-5.18 3.28,-6.88 0,-0.9 -0.27,-1.6 -0.82,-2.14 -0.54,-0.51 -1.29,-0.77 -2.24,-0.77 -1.6,0 -3.81,0.77 -6.61,2.3 -2.79,1.56 -5.73,3.65 -8.82,6.32 -5.07,4.3 -9.11,8.26 -12.12,11.83 -3.01,3.6 -4.52,6.2 -4.52,7.8zm31.37 -12.63c-6.13,6.02 -11.71,10.59 -16.79,13.75 -5.08,3.16 -9.4,4.73 -12.95,4.73 -2.48,0 -4.42,-0.7 -5.88,-2.13 -1.43,-1.44 -2.16,-3.33 -2.16,-5.71 0,-3.31 1.34,-6.85 4.01,-10.57 2.69,-3.72 6.48,-7.39 11.44,-10.93 3.69,-2.68 7.48,-4.76 11.35,-6.27 3.86,-1.53 7.26,-2.28 10.2,-2.28 2.38,0 4.27,0.63 5.73,1.89 1.44,1.26 2.16,2.92 2.16,4.96 0,1.38 -0.41,2.91 -1.23,4.64 -0.85,1.7 -2.09,3.57 -3.75,5.56 0.51,1.09 1.24,1.89 2.14,2.43 0.9,0.51 1.99,0.78 3.26,0.78 1.82,0 3.91,-0.83 6.26,-2.46 2.39,-1.65 3.87,-2.48 4.43,-2.48 0.29,0 0.51,0.1 0.63,0.3 0.14,0.19 0.22,0.48 0.22,0.85 0,0.94 -1.34,2.3 -4.06,4.08 -2.7,1.75 -5.2,2.62 -7.48,2.62 -1.51,0 -2.87,-0.29 -4.08,-0.9 -1.22,-0.58 -2.36,-1.55 -3.45,-2.86z"/>
  <path id="21" class="fil3" d="M1816.77 2186.61c-0.41,0.15 -0.97,0.25 -1.62,0.32 -0.66,0.07 -1.78,0.12 -3.36,0.12 -1.6,0 -2.69,-0.07 -3.23,-0.22 -0.55,-0.14 -0.82,-0.39 -0.82,-0.78 0,-0.85 2.09,-3.2 6.27,-7.04 2.79,-2.62 5.07,-4.81 6.82,-6.56l1.73 -1.56c9.59,-9.3 14.38,-14.64 14.38,-16.01 -0.05,-0.43 -0.15,-0.72 -0.29,-0.92 -0.15,-0.19 -0.3,-0.29 -0.49,-0.29 -1.34,0 -3.04,0.63 -5.1,1.92 -2.07,1.29 -4.98,3.55 -8.72,6.83 -0.95,0.8 -2.09,1.82 -3.43,3.06 -1.75,1.65 -2.91,2.5 -3.47,2.5 -0.34,0 -0.63,-0.12 -0.9,-0.37 -0.27,-0.24 -0.39,-0.53 -0.39,-0.85 0,-0.68 1.68,-2.5 5.05,-5.49 0.71,-0.63 1.27,-1.11 1.63,-1.5 4.01,-3.5 7.48,-6.12 10.47,-7.87 2.99,-1.73 5.54,-2.6 7.63,-2.6 1.51,0 2.67,0.51 3.47,1.5 0.83,1 1.22,2.51 1.22,4.5 0,0.34 -0.02,0.73 -0.07,1.21 -0.05,0.46 -0.1,1.17 -0.2,2.07 4.69,-3.28 8.48,-5.64 11.4,-7.02 2.89,-1.41 5.36,-2.12 7.41,-2.12 1.5,0 2.72,0.46 3.59,1.36 0.88,0.9 1.31,2.14 1.31,3.7 0,1.72 -0.58,3.47 -1.75,5.24 -1.16,1.78 -3.64,4.47 -7.45,8.09 -1,0.95 -2.43,2.26 -4.28,3.99 -5.78,5.39 -8.67,8.67 -8.67,9.81 0,0.51 0.22,0.95 0.63,1.29 0.44,0.32 0.99,0.49 1.72,0.49 2.09,0 5.13,-1 9.16,-3.02 4.01,-2.01 8.29,-4.76 12.85,-8.23 1.95,-1.41 4.01,-3.09 6.2,-4.98 2.18,-1.9 3.47,-2.85 3.91,-2.85 0.34,0 0.58,0.13 0.78,0.32 0.19,0.22 0.31,0.54 0.36,0.97 0,0.85 -2.65,3.43 -7.92,7.68l-0.34 0.29c-5.22,4.13 -10.25,7.44 -15.06,9.91 -4.83,2.46 -8.5,3.7 -11.08,3.7 -2.14,0 -3.86,-0.59 -5.2,-1.78 -1.33,-1.19 -1.99,-2.74 -1.99,-4.64 0,-2.28 0.88,-4.76 2.6,-7.48 1.73,-2.7 4.23,-5.44 7.51,-8.24 1.04,-0.92 2.45,-2.11 4.27,-3.64 4.4,-3.69 6.61,-5.88 6.61,-6.54 0,-0.34 -0.17,-0.63 -0.51,-0.85 -0.32,-0.24 -0.73,-0.36 -1.19,-0.36 -2.72,0 -7.99,3.06 -15.84,9.21 -7.87,6.14 -16.4,14.06 -25.61,23.73z"/>
  <path id="22" class="fil3" d="M1876.15 2186.61c-0.49,0.15 -1.05,0.25 -1.68,0.32 -0.65,0.07 -1.75,0.12 -3.33,0.12 -1.65,0 -2.76,-0.07 -3.35,-0.22 -0.56,-0.14 -0.85,-0.39 -0.85,-0.78 0,-0.48 2.92,-3.83 8.77,-10.1 5.86,-6.27 11.37,-12.59 16.62,-18.93 -3.06,2.26 -6.32,4.91 -9.82,7.9 -3.49,2.99 -5.51,4.47 -6.09,4.47 -0.27,0 -0.49,-0.1 -0.64,-0.32 -0.14,-0.22 -0.21,-0.53 -0.21,-0.97 0,-0.9 2.16,-3.13 6.48,-6.68 4.33,-3.57 10.18,-7.92 17.54,-13.05l40.26 -47.44c0.63,-0.71 1.16,-1.19 1.65,-1.41 0.46,-0.24 1.09,-0.36 1.84,-0.36 1.39,0 2.53,0.17 3.43,0.53 0.9,0.36 1.36,0.83 1.36,1.38 0,0.56 -0.32,1.22 -0.92,1.92 -0.15,0.15 -0.27,0.3 -0.37,0.44l-47.98 56.51c4.84,-3.62 8.92,-6.27 12.22,-7.97 3.33,-1.68 6.1,-2.53 8.31,-2.53 1.58,0 2.8,0.46 3.67,1.36 0.87,0.9 1.31,2.14 1.31,3.7 0,1.72 -0.58,3.47 -1.77,5.24 -1.17,1.78 -3.65,4.47 -7.36,8.09 -1.05,0.95 -2.5,2.26 -4.35,3.99 -5.78,5.39 -8.67,8.67 -8.67,9.81 0,0.51 0.21,0.95 0.63,1.29 0.43,0.32 0.99,0.49 1.7,0.49 2.09,0 5.15,-1 9.13,-3.02 4.01,-2.01 8.29,-4.76 12.83,-8.23 1.94,-1.41 4.03,-3.09 6.22,-4.98 2.18,-1.9 3.5,-2.85 3.91,-2.85 0.34,0 0.61,0.13 0.83,0.37 0.21,0.24 0.31,0.53 0.31,0.92 0,0.85 -2.65,3.45 -7.97,7.75l-0.34 0.29c-5.17,4.09 -10.18,7.37 -14.99,9.84 -4.81,2.46 -8.5,3.7 -11.05,3.7 -2.14,0 -3.86,-0.59 -5.2,-1.78 -1.33,-1.19 -1.99,-2.74 -1.99,-4.64 0,-2.28 0.87,-4.76 2.6,-7.48 1.72,-2.7 4.23,-5.44 7.51,-8.24 1.04,-0.92 2.45,-2.11 4.27,-3.64 4.4,-3.69 6.61,-5.88 6.61,-6.54 0,-0.34 -0.17,-0.63 -0.51,-0.85 -0.32,-0.24 -0.73,-0.36 -1.19,-0.36 -2.99,0 -8.41,3.11 -16.21,9.35 -7.82,6.25 -15.54,14.09 -23.17,23.59z"/>
  <path id="23" class="fil3" d="M1934.87 2181.05c0,0.85 0.21,1.46 0.63,1.82 0.44,0.37 1.09,0.54 1.99,0.54 2.09,0 4.83,-0.98 8.26,-2.92 3.4,-1.94 7.36,-4.81 11.88,-8.62 3.89,-3.31 6.92,-6.42 9.09,-9.28 2.18,-2.87 3.28,-5.18 3.28,-6.88 0,-0.9 -0.27,-1.6 -0.83,-2.14 -0.54,-0.51 -1.29,-0.77 -2.24,-0.77 -1.6,0 -3.81,0.77 -6.6,2.3 -2.8,1.56 -5.74,3.65 -8.82,6.32 -5.08,4.3 -9.11,8.26 -12.13,11.83 -3.01,3.6 -4.51,6.2 -4.51,7.8zm31.36 -12.63c-6.12,6.02 -11.71,10.59 -16.79,13.75 -5.08,3.16 -9.4,4.73 -12.95,4.73 -2.47,0 -4.42,-0.7 -5.87,-2.13 -1.44,-1.44 -2.17,-3.33 -2.17,-5.71 0,-3.31 1.34,-6.85 4.01,-10.57 2.7,-3.72 6.49,-7.39 11.44,-10.93 3.7,-2.68 7.49,-4.76 11.35,-6.27 3.86,-1.53 7.26,-2.28 10.2,-2.28 2.38,0 4.28,0.63 5.74,1.89 1.43,1.26 2.16,2.92 2.16,4.96 0,1.38 -0.42,2.91 -1.24,4.64 -0.85,1.7 -2.09,3.57 -3.74,5.56 0.51,1.09 1.24,1.89 2.14,2.43 0.89,0.51 1.99,0.78 3.25,0.78 1.82,0 3.91,-0.83 6.27,-2.46 2.38,-1.65 3.86,-2.48 4.42,-2.48 0.29,0 0.51,0.1 0.63,0.3 0.15,0.19 0.22,0.48 0.22,0.85 0,0.94 -1.34,2.3 -4.06,4.08 -2.69,1.75 -5.2,2.62 -7.48,2.62 -1.51,0 -2.87,-0.29 -4.08,-0.9 -1.22,-0.58 -2.36,-1.55 -3.45,-2.86z"/>
  <path id="24" class="fil3" d="M1991.54 2186.61c-1.31,0 -2.43,-0.39 -3.3,-1.14 -0.88,-0.75 -1.31,-1.72 -1.31,-2.91 0,-1.8 0.7,-3.38 2.14,-4.79 1.41,-1.38 3.08,-2.09 4.98,-2.09 1.31,0 2.4,0.39 3.25,1.17 0.85,0.77 1.29,1.77 1.29,2.94 0,1.79 -0.71,3.4 -2.09,4.76 -1.41,1.38 -3.06,2.06 -4.96,2.06zm11.25 -24.02l48.83 -66.06c0.75,-1.04 1.63,-1.87 2.6,-2.45 0.97,-0.61 1.9,-0.9 2.79,-0.9 1.29,0 2.51,0.41 3.67,1.24 1.17,0.82 1.75,1.67 1.75,2.53 0,0.99 -0.68,2.28 -2.06,3.86 -0.29,0.31 -0.54,0.63 -0.78,0.92l-54.32 62.92 -0.19 0.22c-0.98,1.09 -1.78,1.63 -2.43,1.63 -0.39,0 -0.66,-0.12 -0.85,-0.37 -0.2,-0.22 -0.3,-0.58 -0.3,-1.07 0,-0.17 0.13,-0.51 0.37,-0.94 0.22,-0.47 0.53,-0.98 0.92,-1.53z"/>
  <rect class="fil4" x="-4.84" y="-13" width="2469.69" height="2489.68"/>
 </g>
</svg>
